<svg width="700" height="700" viewBox="0 0 700 700" fill="none" xmlns="http://www.w3.org/2000/svg">
<path d="M361.235 528.531L255.056 526.589C220.678 525.912 186.214 527.263 152.51 520.253C101.238 509.778 97.6053 458.421 93.8045 415.342C88.5674 354.778 90.5949 293.114 100.478 233.056C106.057 199.357 128.014 179.249 161.97 177.06C276.596 169.119 391.984 170.06 506.355 173.765C518.434 174.105 530.596 175.961 542.507 178.074C601.3 188.38 602.734 246.579 606.545 295.572C610.346 345.071 608.741 394.824 601.476 443.985C595.648 484.69 584.497 518.824 537.438 522.119C478.476 526.428 420.868 529.897 361.74 528.793C361.743 528.531 361.403 528.531 361.235 528.531ZM298.812 425.479C343.245 399.967 386.829 374.881 431.008 349.541C386.492 324.029 342.991 298.943 298.812 273.602V425.479Z" fill="white"/>
</svg>
