<svg width="700" height="700" viewBox="0 0 700 700" fill="none" xmlns="http://www.w3.org/2000/svg">
<path d="M349.5 78C199.555 78 78 199.555 78 349.5C78 464.521 149.563 562.848 250.558 602.408C248.186 580.927 246.041 547.891 251.5 524.44C256.434 503.25 283.336 389.487 283.336 389.487C283.336 389.487 275.215 373.222 275.215 349.177C275.215 311.425 297.097 283.241 324.342 283.241C347.506 283.241 358.694 300.631 358.694 321.485C358.694 344.78 343.863 379.607 336.209 411.882C329.813 438.905 349.76 460.942 376.414 460.942C424.668 460.942 461.762 410.062 461.762 336.616C461.762 271.61 415.052 226.16 348.354 226.16C271.103 226.16 225.759 284.102 225.759 343.983C225.759 367.318 234.748 392.34 245.965 405.942C248.184 408.631 248.509 410.985 247.848 413.73C245.787 422.305 241.207 440.746 240.308 444.52C239.124 449.49 236.373 450.545 231.227 448.15C197.319 432.366 176.118 382.79 176.118 342.97C176.118 257.326 238.345 178.673 355.509 178.673C449.692 178.673 522.884 245.787 522.884 335.479C522.884 429.048 463.887 504.352 382 504.352C354.488 504.352 328.624 490.059 319.771 473.176C319.771 473.176 306.157 525.014 302.857 537.717C296.728 561.299 280.181 590.859 269.113 608.893C294.515 616.758 321.511 621 349.5 621C499.447 621 621.002 499.445 621.002 349.5C621.002 199.555 499.447 78 349.5 78Z" fill="white"/>
</svg>
