<svg width="700" height="700" viewBox="0 0 700 700" fill="none" xmlns="http://www.w3.org/2000/svg">
<path d="M564.152 238.883C564.479 243.616 564.479 248.35 564.479 253.127C564.479 398.69 453.665 566.568 251.038 566.568V566.481C191.181 566.568 132.567 549.423 82.1777 517.095C90.8814 518.142 99.6287 518.665 108.398 518.687C158.002 518.731 206.189 502.087 245.214 471.439C198.074 470.544 156.737 439.809 142.296 394.938C158.809 398.123 175.824 397.468 192.032 393.04C140.639 382.657 103.664 337.502 103.664 285.062C103.664 284.582 103.664 284.124 103.664 283.666C118.977 292.195 136.123 296.929 153.661 297.452C105.257 265.103 90.3361 200.709 119.566 150.363C175.497 219.185 258.018 261.024 346.604 265.452C337.726 227.19 349.854 187.097 378.474 160.201C422.843 118.493 492.625 120.63 534.333 164.978C559.004 160.113 582.65 151.061 604.289 138.234C596.065 163.734 578.854 185.395 555.863 199.16C577.698 196.586 599.032 190.74 619.123 181.818C604.333 203.981 585.704 223.286 564.152 238.883Z" fill="#0B0B0B"/>
</svg>
