<svg width="700" height="700" viewBox="0 0 700 700" fill="none" xmlns="http://www.w3.org/2000/svg">
<path d="M564.156 238.883C564.483 243.616 564.483 248.35 564.483 253.127C564.483 398.69 453.669 566.568 251.042 566.568V566.481C191.185 566.568 132.571 549.423 82.1816 517.095C90.8853 518.142 99.6326 518.665 108.402 518.687C158.006 518.731 206.193 502.087 245.217 471.439C198.078 470.544 156.741 439.809 142.3 394.938C158.813 398.123 175.828 397.468 192.036 393.04C140.642 382.657 103.668 337.502 103.668 285.062C103.668 284.582 103.668 284.124 103.668 283.666C118.981 292.195 136.127 296.929 153.665 297.452C105.261 265.103 90.34 200.709 119.57 150.363C175.501 219.185 258.022 261.024 346.608 265.452C337.729 227.19 349.858 187.097 378.477 160.201C422.847 118.493 492.629 120.63 534.337 164.978C559.008 160.113 582.654 151.061 604.293 138.234C596.069 163.734 578.858 185.395 555.867 199.16C577.702 196.586 599.036 190.74 619.126 181.818C604.337 203.981 585.708 223.286 564.156 238.883Z" fill="#1D9BF0"/>
</svg>
